<?xml version="1.0" encoding="iso-8859-1"?>
<!-- Generator: Adobe Illustrator 19.0.0, SVG Export Plug-In . SVG Version: 6.00 Build 0)  -->
<svg version="1.1" id="Layer_1" xmlns="http://www.w3.org/2000/svg" xmlns:xlink="http://www.w3.org/1999/xlink" x="0px" y="0px"
	 viewBox="0 0 512.043 512.043" style="enable-background:new 0 0 512.043 512.043;" xml:space="preserve">
<g transform="translate(-1)">
	<g>
		<g>
			<path d="M491.709,234.688v-21.333c0-11.782-9.551-21.333-21.333-21.333c-11.782,0-21.333,9.551-21.333,21.333v21.333h-42.667
				v-21.333c0-11.782-9.551-21.333-21.333-21.333c-11.782,0-21.333,9.551-21.333,21.333v21.333h-42.667v-21.333
				c0-11.782-9.551-21.333-21.333-21.333c-11.782,0-21.333,9.551-21.333,21.333v21.333h-21.333v-64h21.333
				c19.953,0,28.986-24.948,13.657-37.722L171.709,32.696V21.355c0-11.782-9.551-21.333-21.333-21.333
				c-11.782,0-21.333,9.551-21.333,21.333v11.341L8.719,132.966c-15.328,12.774-6.296,37.722,13.657,37.722h21.333v213.333
				c-9.789,0-18.322,6.662-20.696,16.159L1.679,485.514c-3.366,13.464,6.818,26.507,20.696,26.507h256h42.667h85.333h85.333
				c11.782,0,21.333-9.551,21.333-21.333V256.021C513.043,244.239,503.491,234.688,491.709,234.688z M150.376,70.458l69.076,57.564
				H81.3L150.376,70.458z M86.376,170.688h128v85.333v128h-128V170.688z M60.366,426.688h4.677h170.667h4.677l10.667,42.667H49.699
				L60.366,426.688z M342.376,469.355v-42.667c0-11.791,9.542-21.333,21.333-21.333s21.333,9.542,21.333,21.333v42.667H342.376z
				 M470.376,469.355h-42.667v-42.667c0-35.355-28.645-64-64-64s-64,28.645-64,64v42.667h-4.677l-17.294-69.174
				c-2.374-9.497-10.907-16.159-20.696-16.159V277.355h213.333V469.355z"/>
			<path d="M299.709,298.688c-11.782,0-21.333,9.551-21.333,21.333v21.333c0,11.782,9.551,21.333,21.333,21.333
				c11.782,0,21.333-9.551,21.333-21.333v-21.333C321.043,308.239,311.491,298.688,299.709,298.688z"/>
			<path d="M427.709,362.688c11.782,0,21.333-9.551,21.333-21.333v-21.333c0-11.782-9.551-21.333-21.333-21.333
				s-21.333,9.551-21.333,21.333v21.333C406.376,353.137,415.927,362.688,427.709,362.688z"/>
			<path d="M150.376,192.021c-11.782,0-21.333,9.551-21.333,21.333v21.333c0,11.782,9.551,21.333,21.333,21.333
				c11.782,0,21.333-9.551,21.333-21.333v-21.333C171.709,201.573,162.158,192.021,150.376,192.021z"/>
			<path d="M150.376,298.688c-11.782,0-21.333,9.551-21.333,21.333v21.333c0,11.782,9.551,21.333,21.333,21.333
				c11.782,0,21.333-9.551,21.333-21.333v-21.333C171.709,308.239,162.158,298.688,150.376,298.688z"/>
		</g>
	</g>
</g>
<g>
</g>
<g>
</g>
<g>
</g>
<g>
</g>
<g>
</g>
<g>
</g>
<g>
</g>
<g>
</g>
<g>
</g>
<g>
</g>
<g>
</g>
<g>
</g>
<g>
</g>
<g>
</g>
<g>
</g>
</svg>
